<svg height="160" width="300" xmlns="http://www.w3.org/2000/svg"><g fill="#7da886"><path d="m14.38199995 9.87700046.051 4.573h-3.332l-.527-2.295q-.51-.408-1.2835-.68-.7735-.272-1.7085-.272-1.309 0-2.074.5865-.765.5865-.765 1.4705 0 .833.731 1.3855.731.5525 2.924.9775 3.417.68 5.066 1.9975 1.649 1.3175 1.649 3.6295 0 2.482-2.1335 4.0545-2.1335 1.5725-5.6185 1.5725-2.125 0-3.9015-.6205-1.7765-.6205-3.1535-1.7765l-.051-4.131h3.468l.68 2.397q.442.374 1.207.5525.765.1785 1.598.1785 1.513 0 2.3035-.544.7905-.544.7905-1.479 0-.816-.799-1.411-.799-.595-2.941-1.054-3.247-.663-4.9045-1.9635-1.6575-1.3005-1.6575-3.5445 0-2.312 1.904-3.9865 1.904-1.6745 5.423-1.6745 2.142 0 4.0545.578 1.9125.578 3.0005 1.479zm20.4 16.643h-5.729q-.204-.459-.357-.9435-.153-.4845-.238-.9775-.884 1.02-2.1505 1.649-1.2665.629-2.8985.629-2.703 0-4.2925-1.4705-1.5895-1.4705-1.5895-4.0035 0-2.584 2.074-3.995 2.074-1.411 6.086-1.411h2.533v-1.802q0-1.326-.765-2.057-.765-.731-2.261-.731-.85 0-1.513.1955-.663.1955-1.071.4675l-.323 1.972h-3.74l.017-4.08q1.36-.918 3.1195-1.547 1.7595-.629 3.8335-.629 3.417 0 5.5505 1.6745 2.1335 1.6745 2.1335 4.7685v7.599q0 .425.0085.799.0085.374.0595.714l1.513.204zm-10.03-3.315q1.122 0 2.04-.4845.918-.4845 1.428-1.2155v-2.805h-2.533q-1.581 0-2.397.7395-.816.7395-.816 1.7765 0 .935.6035 1.462.6035.527 1.6745.527zm13.838-19.703-2.652-.51v-2.992h7.616v23.035l2.397.51v2.975h-9.758v-2.975l2.397-.51zm26.418 23.018h-5.729q-.204-.459-.357-.9435-.153-.4845-.238-.9775-.884 1.02-2.1505 1.649-1.2665.629-2.8985.629-2.703 0-4.2925-1.4705-1.5895-1.4705-1.5895-4.0035 0-2.584 2.074-3.995 2.074-1.411 6.086-1.411h2.533v-1.802q0-1.326-.765-2.057-.765-.731-2.261-.731-.85 0-1.513.1955-.663.1955-1.071.4675l-.323 1.972h-3.74l.017-4.08q1.36-.918 3.1195-1.547 1.7595-.629 3.8335-.629 3.417 0 5.5505 1.6745 2.1335 1.6745 2.1335 4.7685v7.599q0 .425.0085.799.0085.374.0595.714l1.513.204zm-10.03-3.315q1.122 0 2.04-.4845.918-.4845 1.428-1.2155v-2.805h-2.533q-1.581 0-2.397.7395-.816.7395-.816 1.7765 0 .935.6035 1.462.6035.527 1.6745.527zm24.361 3.315-.323-2.329q-.884 1.292-2.1845 1.989-1.3005.697-2.9665.697-2.907 0-4.556-1.8615-1.649-1.8615-1.649-5.7885v-7.599l-2.023-.51v-2.992h2.023 4.964v11.135q0 2.006.6715 2.8815.6715.8755 1.9975.8755 1.173 0 2.0315-.3825.8585-.3825 1.4025-1.0965v-9.911l-2.176-.51v-2.992h2.176 4.964v14.909l2.227.51v2.975zm8.262 0v-2.975l2.38-.51v-11.407l-2.635-.51v-2.992h7.259l.221 2.635q.918-1.411 2.261-2.193 1.343-.782 3.009-.782 2.788 0 4.352 1.751 1.564 1.751 1.564 5.491v8.007l2.38.51v2.975h-9.486v-2.975l2.125-.51v-7.99q0-1.853-.748-2.6265-.748-.7735-2.261-.7735-.986 0-1.768.3995-.782.3995-1.309 1.1305v9.86l2.006.51v2.975zm28.441-4.352v4.352h-4.947v-4.352zm2.652 4.352v-2.975l2.397-.51v-11.407l-2.652-.51v-2.992h7.616v14.909l2.38.51v2.975zm7.361-26.52v3.723h-4.964v-3.723zm4.012 17.51v-.357q0-4.114 2.3035-6.7405 2.3035-2.6265 6.3665-2.6265 4.08 0 6.3835 2.618 2.3035 2.618 2.3035 6.749v.357q0 4.148-2.3035 6.7575-2.3035 2.6095-6.3495 2.6095-4.097 0-6.4005-2.6095-2.3035-2.6095-2.3035-6.7575zm4.964-.357v.357q0 2.516.884 4.0375.884 1.5215 2.856 1.5215 1.921 0 2.8135-1.53.8925-1.53.8925-4.029v-.357q0-2.448-.901-3.995-.901-1.547-2.839-1.547-1.938 0-2.822 1.547-.884 1.547-.884 3.995z" transform="translate(130.738514 66.561493)"/><path d="m53.46 66.21a7.29 7.29 0 0 0 5.66-2.68 5.43 5.43 0 0 1 4.22-1.82h3.84a5.46 5.46 0 0 1 4.23 1.82 7.32 7.32 0 1 0 .06-9.35 5.83 5.83 0 0 1 -4.47 1.89h-3.46a5.8 5.8 0 0 1 -4.48-1.88 7.32 7.32 0 1 0 -5.6 12zm23.61-9.16a2 2 0 1 1 -2 2 2 2 0 0 1 2-2zm-23.61 0a2 2 0 1 1 -2 2 2 2 0 0 1 2-2zm29.21 20.74a7.32 7.32 0 1 0 .06 9.35 5.39 5.39 0 0 1 4.27-1.82h3.64a5.83 5.83 0 0 1 4.49 1.89 7.32 7.32 0 1 0 10.3-10.32 5.76 5.76 0 0 1 -1.88-4.46v-3.43a5.77 5.77 0 0 1 1.88-4.47 7.34 7.34 0 0 0 2.42-7.31 7.25 7.25 0 0 0 -5.16-5.36 7.32 7.32 0 0 0 -6.69 12.69 5.43 5.43 0 0 1 1.81 4.23v4.35a5.07 5.07 0 0 1 -1.93 3.81 6.72 6.72 0 0 0 -.8.8 5.09 5.09 0 0 1 -3.82 1.94h-4.12a5.79 5.79 0 0 1 -4.47-1.89zm-5.6 6.8a2 2 0 1 1 2-2 2 2 0 0 1 -2 2zm23.6-27.54a2 2 0 1 1 -2 2 2 2 0 0 1 2-2zm0 23.61a2 2 0 1 1 -2 2 2 2 0 0 1 2-2zm7.07 23.5a7.27 7.27 0 0 0 -5.35-5.16 7.36 7.36 0 0 0 -7.32 2.42 5.79 5.79 0 0 1 -4.48 1.89h-3.59a5.42 5.42 0 0 1 -4.22-1.82 7.32 7.32 0 0 0 -11.32 0 5.46 5.46 0 0 1 -4.23 1.82h-4.4a5.09 5.09 0 0 1 -3.83-1.96 7.55 7.55 0 0 0 -.8-.8 5.07 5.07 0 0 1 -1.94-3.81v-4.16a5.82 5.82 0 0 1 1.89-4.48 7.32 7.32 0 1 0 -9.35.06 5.4 5.4 0 0 1 1.82 4.22v3.62a5.82 5.82 0 0 1 -1.89 4.48 7.32 7.32 0 1 0 10.31 10.31 5.81 5.81 0 0 1 4.48-1.89h3.64a5.42 5.42 0 0 1 4.23 1.82 7.32 7.32 0 0 0 11.32 0 5.39 5.39 0 0 1 4.29-1.79h3.84a5.42 5.42 0 0 1 4.16 1.82 7.32 7.32 0 0 0 12.72-6.59zm-54.28 4a2 2 0 1 1 2-2 2 2 0 0 1 -2 2.04zm0-23.61a2 2 0 1 1 2-2 2 2 0 0 1 -2 2.04zm23.61 23.65a2 2 0 1 1 2-2 2 2 0 0 1 -2 2zm23.6 0a2 2 0 1 1 2-2 2 2 0 0 1 -2 2z" transform="translate(.738514)"/></g></svg>